<svg width="240" height="41" viewBox="0 0 240 41" fill="none" xmlns="http://www.w3.org/2000/svg">
<path d="M19.104 7.768C19.104 9.06933 18.8053 10.264 18.208 11.352C17.6107 12.4187 16.6933 13.2827 15.456 13.944C14.2187 14.6053 12.6827 14.936 10.848 14.936H7.456V23H1.984V0.535999H10.848C12.64 0.535999 14.1547 0.845332 15.392 1.464C16.6293 2.08267 17.5573 2.936 18.176 4.024C18.7947 5.112 19.104 6.36 19.104 7.768ZM10.432 10.584C11.4773 10.584 12.256 10.3387 12.768 9.848C13.28 9.35733 13.536 8.664 13.536 7.768C13.536 6.872 13.28 6.17867 12.768 5.688C12.256 5.19733 11.4773 4.952 10.432 4.952H7.456V10.584H10.432ZM43.0088 0.535999V23H37.5368V13.752H29.0248V23H23.5528V0.535999H29.0248V9.336H37.5368V0.535999H43.0088ZM59.183 23.224C57.071 23.224 55.1297 22.7333 53.359 21.752C51.6097 20.7707 50.2123 19.4053 49.167 17.656C48.143 15.8853 47.631 13.9013 47.631 11.704C47.631 9.50667 48.143 7.53333 49.167 5.784C50.2123 4.03467 51.6097 2.66933 53.359 1.688C55.1297 0.706666 57.071 0.216 59.183 0.216C61.295 0.216 63.2257 0.706666 64.975 1.688C66.7457 2.66933 68.1323 4.03467 69.135 5.784C70.159 7.53333 70.671 9.50667 70.671 11.704C70.671 13.9013 70.159 15.8853 69.135 17.656C68.111 19.4053 66.7243 20.7707 64.975 21.752C63.2257 22.7333 61.295 23.224 59.183 23.224ZM59.183 18.232C60.975 18.232 62.4043 17.6347 63.471 16.44C64.559 15.2453 65.103 13.6667 65.103 11.704C65.103 9.72 64.559 8.14133 63.471 6.968C62.4043 5.77333 60.975 5.176 59.183 5.176C57.3697 5.176 55.919 5.76267 54.831 6.936C53.7643 8.10933 53.231 9.69867 53.231 11.704C53.231 13.688 53.7643 15.2773 54.831 16.472C55.919 17.6453 57.3697 18.232 59.183 18.232ZM95.4113 23H89.9393L80.7873 9.144V23H75.3153V0.535999H80.7873L89.9393 14.456V0.535999H95.4113V23ZM115.89 7.64C115.484 6.89333 114.898 6.328 114.13 5.944C113.383 5.53867 112.498 5.336 111.474 5.336C109.703 5.336 108.284 5.92267 107.218 7.096C106.151 8.248 105.618 9.79467 105.618 11.736C105.618 13.8053 106.172 15.4267 107.282 16.6C108.412 17.752 109.959 18.328 111.922 18.328C113.266 18.328 114.396 17.9867 115.314 17.304C116.252 16.6213 116.935 15.64 117.362 14.36H110.418V10.328H122.322V15.416C121.916 16.7813 121.223 18.0507 120.242 19.224C119.282 20.3973 118.055 21.3467 116.562 22.072C115.068 22.7973 113.383 23.16 111.506 23.16C109.287 23.16 107.303 22.68 105.554 21.72C103.826 20.7387 102.471 19.384 101.49 17.656C100.53 15.928 100.05 13.9547 100.05 11.736C100.05 9.51733 100.53 7.544 101.49 5.816C102.471 4.06667 103.826 2.712 105.554 1.752C107.282 0.770665 109.255 0.279999 111.474 0.279999C114.162 0.279999 116.423 0.930665 118.258 2.232C120.114 3.53333 121.34 5.336 121.938 7.64H115.89ZM143.113 0.535999V4.92H137.161V23H131.689V4.92H125.737V0.535999H143.113ZM158.915 23L154.243 14.52H152.931V23H147.459V0.535999H156.643C158.414 0.535999 159.918 0.845332 161.155 1.464C162.414 2.08267 163.352 2.936 163.971 4.024C164.59 5.09067 164.899 6.28533 164.899 7.608C164.899 9.10133 164.472 10.4347 163.619 11.608C162.787 12.7813 161.55 13.6133 159.907 14.104L165.091 23H158.915ZM152.931 10.648H156.323C157.326 10.648 158.072 10.4027 158.563 9.912C159.075 9.42133 159.331 8.728 159.331 7.832C159.331 6.97867 159.075 6.30667 158.563 5.816C158.072 5.32533 157.326 5.08 156.323 5.08H152.931V10.648ZM180.558 23.224C178.446 23.224 176.505 22.7333 174.734 21.752C172.985 20.7707 171.587 19.4053 170.542 17.656C169.518 15.8853 169.006 13.9013 169.006 11.704C169.006 9.50667 169.518 7.53333 170.542 5.784C171.587 4.03467 172.985 2.66933 174.734 1.688C176.505 0.706666 178.446 0.216 180.558 0.216C182.67 0.216 184.601 0.706666 186.35 1.688C188.121 2.66933 189.507 4.03467 190.51 5.784C191.534 7.53333 192.046 9.50667 192.046 11.704C192.046 13.9013 191.534 15.8853 190.51 17.656C189.486 19.4053 188.099 20.7707 186.35 21.752C184.601 22.7333 182.67 23.224 180.558 23.224ZM180.558 18.232C182.35 18.232 183.779 17.6347 184.846 16.44C185.934 15.2453 186.478 13.6667 186.478 11.704C186.478 9.72 185.934 8.14133 184.846 6.968C183.779 5.77333 182.35 5.176 180.558 5.176C178.745 5.176 177.294 5.76267 176.206 6.936C175.139 8.10933 174.606 9.69867 174.606 11.704C174.606 13.688 175.139 15.2773 176.206 16.472C177.294 17.6453 178.745 18.232 180.558 18.232Z" fill="#1266DD"/>
<path d="M204.818 23.224C203.176 23.224 201.704 22.9573 200.402 22.424C199.101 21.8907 198.056 21.1013 197.266 20.056C196.498 19.0107 196.093 17.752 196.05 16.28H201.874C201.96 17.112 202.248 17.752 202.738 18.2C203.229 18.6267 203.869 18.84 204.658 18.84C205.469 18.84 206.109 18.6587 206.578 18.296C207.048 17.912 207.282 17.3893 207.282 16.728C207.282 16.1733 207.09 15.7147 206.706 15.352C206.344 14.9893 205.885 14.6907 205.33 14.456C204.797 14.2213 204.029 13.9547 203.026 13.656C201.576 13.208 200.392 12.76 199.474 12.312C198.557 11.864 197.768 11.2027 197.106 10.328C196.445 9.45333 196.114 8.312 196.114 6.904C196.114 4.81333 196.872 3.18133 198.386 2.008C199.901 0.813333 201.874 0.216 204.306 0.216C206.781 0.216 208.776 0.813333 210.29 2.008C211.805 3.18133 212.616 4.824 212.722 6.936H206.802C206.76 6.21067 206.493 5.64533 206.002 5.24C205.512 4.81333 204.882 4.6 204.114 4.6C203.453 4.6 202.92 4.78133 202.514 5.144C202.109 5.48533 201.906 5.98667 201.906 6.648C201.906 7.37333 202.248 7.93867 202.93 8.344C203.613 8.74933 204.68 9.18667 206.13 9.656C207.581 10.1467 208.754 10.616 209.65 11.064C210.568 11.512 211.357 12.1627 212.018 13.016C212.68 13.8693 213.01 14.968 213.01 16.312C213.01 17.592 212.68 18.7547 212.018 19.8C211.378 20.8453 210.44 21.6773 209.202 22.296C207.965 22.9147 206.504 23.224 204.818 23.224ZM239.066 0.535999L231.098 23H224.25L216.282 0.535999H222.106L227.674 17.496L233.274 0.535999H239.066Z" fill="#F73859"/>
<path d="M4.55 38L1.68 34.82V38H0.77V31.03H1.68V34.26L4.56 31.03H5.71L2.55 34.52L5.74 38H4.55ZM11.7563 35.05C11.7563 35.2233 11.7463 35.4067 11.7263 35.6H7.34633C7.37966 36.14 7.56299 36.5633 7.89633 36.87C8.23633 37.17 8.64633 37.32 9.12633 37.32C9.51966 37.32 9.84633 37.23 10.1063 37.05C10.373 36.8633 10.5597 36.6167 10.6663 36.31H11.6463C11.4997 36.8367 11.2063 37.2667 10.7663 37.6C10.3263 37.9267 9.77966 38.09 9.12633 38.09C8.60633 38.09 8.13966 37.9733 7.72633 37.74C7.31966 37.5067 6.99966 37.1767 6.76633 36.75C6.53299 36.3167 6.41633 35.8167 6.41633 35.25C6.41633 34.6833 6.52966 34.1867 6.75633 33.76C6.98299 33.3333 7.29966 33.0067 7.70633 32.78C8.11966 32.5467 8.59299 32.43 9.12633 32.43C9.64633 32.43 10.1063 32.5433 10.5063 32.77C10.9063 32.9967 11.213 33.31 11.4263 33.71C11.6463 34.1033 11.7563 34.55 11.7563 35.05ZM10.8163 34.86C10.8163 34.5133 10.7397 34.2167 10.5863 33.97C10.433 33.7167 10.223 33.5267 9.95633 33.4C9.69633 33.2667 9.40633 33.2 9.08633 33.2C8.62633 33.2 8.23299 33.3467 7.90633 33.64C7.58633 33.9333 7.40299 34.34 7.35633 34.86H10.8163ZM9.09633 31.18L7.70633 32.03V31.31L9.09633 30.48L10.4763 31.31V32.03L9.09633 31.18ZM15.6275 32.42C16.2942 32.42 16.8342 32.6233 17.2475 33.03C17.6608 33.43 17.8675 34.01 17.8675 34.77V38H16.9675V34.9C16.9675 34.3533 16.8308 33.9367 16.5575 33.65C16.2842 33.3567 15.9108 33.21 15.4375 33.21C14.9575 33.21 14.5742 33.36 14.2875 33.66C14.0075 33.96 13.8675 34.3967 13.8675 34.97V38H12.9575V32.52H13.8675V33.3C14.0475 33.02 14.2908 32.8033 14.5975 32.65C14.9108 32.4967 15.2542 32.42 15.6275 32.42ZM22.074 32.42C22.4873 32.42 22.8607 32.51 23.194 32.69C23.5273 32.8633 23.7873 33.1267 23.974 33.48C24.1673 33.8333 24.264 34.2633 24.264 34.77V38H23.364V34.9C23.364 34.3533 23.2273 33.9367 22.954 33.65C22.6807 33.3567 22.3073 33.21 21.834 33.21C21.354 33.21 20.9707 33.36 20.684 33.66C20.404 33.96 20.264 34.3967 20.264 34.97V38H19.354V30.6H20.264V33.3C20.444 33.02 20.6907 32.8033 21.004 32.65C21.324 32.4967 21.6807 32.42 22.074 32.42ZM29.5265 33.27V36.5C29.5265 36.7667 29.5832 36.9567 29.6965 37.07C29.8098 37.1767 30.0065 37.23 30.2865 37.23H30.9565V38H30.1365C29.6298 38 29.2498 37.8833 28.9965 37.65C28.7432 37.4167 28.6165 37.0333 28.6165 36.5V33.27H27.9065V32.52H28.6165V31.14H29.5265V32.52H30.9565V33.27H29.5265ZM34.7791 32.42C35.1924 32.42 35.5657 32.51 35.8991 32.69C36.2324 32.8633 36.4924 33.1267 36.6791 33.48C36.8724 33.8333 36.9691 34.2633 36.9691 34.77V38H36.0691V34.9C36.0691 34.3533 35.9324 33.9367 35.6591 33.65C35.3857 33.3567 35.0124 33.21 34.5391 33.21C34.0591 33.21 33.6757 33.36 33.3891 33.66C33.1091 33.96 32.9691 34.3967 32.9691 34.97V38H32.0591V30.6H32.9691V33.3C33.1491 33.02 33.3957 32.8033 33.7091 32.65C34.0291 32.4967 34.3857 32.42 34.7791 32.42ZM40.8455 38.09C40.3322 38.09 39.8655 37.9733 39.4455 37.74C39.0322 37.5067 38.7055 37.1767 38.4655 36.75C38.2322 36.3167 38.1155 35.8167 38.1155 35.25C38.1155 34.69 38.2355 34.1967 38.4755 33.77C38.7222 33.3367 39.0555 33.0067 39.4755 32.78C39.8955 32.5467 40.3655 32.43 40.8855 32.43C41.4055 32.43 41.8755 32.5467 42.2955 32.78C42.7155 33.0067 43.0455 33.3333 43.2855 33.76C43.5322 34.1867 43.6555 34.6833 43.6555 35.25C43.6555 35.8167 43.5289 36.3167 43.2755 36.75C43.0289 37.1767 42.6922 37.5067 42.2655 37.74C41.8389 37.9733 41.3655 38.09 40.8455 38.09ZM40.8455 37.29C41.1722 37.29 41.4789 37.2133 41.7655 37.06C42.0522 36.9067 42.2822 36.6767 42.4555 36.37C42.6355 36.0633 42.7255 35.69 42.7255 35.25C42.7255 34.81 42.6389 34.4367 42.4655 34.13C42.2922 33.8233 42.0655 33.5967 41.7855 33.45C41.5055 33.2967 41.2022 33.22 40.8755 33.22C40.5422 33.22 40.2355 33.2967 39.9555 33.45C39.6822 33.5967 39.4622 33.8233 39.2955 34.13C39.1289 34.4367 39.0455 34.81 39.0455 35.25C39.0455 35.6967 39.1255 36.0733 39.2855 36.38C39.4522 36.6867 39.6722 36.9167 39.9455 37.07C40.2189 37.2167 40.5189 37.29 40.8455 37.29ZM40.8955 31.11L39.5055 31.96V31.24L40.8955 30.41L42.2755 31.24V31.96L40.8955 31.11ZM47.522 32.42C48.1887 32.42 48.7287 32.6233 49.142 33.03C49.5554 33.43 49.762 34.01 49.762 34.77V38H48.862V34.9C48.862 34.3533 48.7254 33.9367 48.452 33.65C48.1787 33.3567 47.8054 33.21 47.332 33.21C46.852 33.21 46.4687 33.36 46.182 33.66C45.902 33.96 45.762 34.3967 45.762 34.97V38H44.852V32.52H45.762V33.3C45.942 33.02 46.1854 32.8033 46.492 32.65C46.8054 32.4967 47.1487 32.42 47.522 32.42ZM53.5085 32.43C53.9818 32.43 54.3952 32.5333 54.7485 32.74C55.1085 32.9467 55.3752 33.2067 55.5485 33.52V32.52H56.4685V38.12C56.4685 38.62 56.3618 39.0633 56.1485 39.45C55.9352 39.8433 55.6285 40.15 55.2285 40.37C54.8352 40.59 54.3752 40.7 53.8485 40.7C53.1285 40.7 52.5285 40.53 52.0485 40.19C51.5685 39.85 51.2852 39.3867 51.1985 38.8H52.0985C52.1985 39.1333 52.4052 39.4 52.7185 39.6C53.0318 39.8067 53.4085 39.91 53.8485 39.91C54.3485 39.91 54.7552 39.7533 55.0685 39.44C55.3885 39.1267 55.5485 38.6867 55.5485 38.12V36.97C55.3685 37.29 55.1018 37.5567 54.7485 37.77C54.3952 37.9833 53.9818 38.09 53.5085 38.09C53.0218 38.09 52.5785 37.97 52.1785 37.73C51.7852 37.49 51.4752 37.1533 51.2485 36.72C51.0218 36.2867 50.9085 35.7933 50.9085 35.24C50.9085 34.68 51.0218 34.19 51.2485 33.77C51.4752 33.3433 51.7852 33.0133 52.1785 32.78C52.5785 32.5467 53.0218 32.43 53.5085 32.43ZM55.5485 35.25C55.5485 34.8367 55.4652 34.4767 55.2985 34.17C55.1318 33.8633 54.9052 33.63 54.6185 33.47C54.3385 33.3033 54.0285 33.22 53.6885 33.22C53.3485 33.22 53.0385 33.3 52.7585 33.46C52.4785 33.62 52.2552 33.8533 52.0885 34.16C51.9218 34.4667 51.8385 34.8267 51.8385 35.24C51.8385 35.66 51.9218 36.0267 52.0885 36.34C52.2552 36.6467 52.4785 36.8833 52.7585 37.05C53.0385 37.21 53.3485 37.29 53.6885 37.29C54.0285 37.29 54.3385 37.21 54.6185 37.05C54.9052 36.8833 55.1318 36.6467 55.2985 36.34C55.4652 36.0267 55.5485 35.6633 55.5485 35.25ZM61.7823 33.27V36.5C61.7823 36.7667 61.839 36.9567 61.9523 37.07C62.0657 37.1767 62.2623 37.23 62.5423 37.23H63.2123V38H62.3923C61.8857 38 61.5057 37.8833 61.2523 37.65C60.999 37.4167 60.8723 37.0333 60.8723 36.5V33.27H60.1623V32.52H60.8723V31.14H61.7823V32.52H63.2123V33.27H61.7823ZM64.7849 31.63C64.6116 31.63 64.4649 31.57 64.3449 31.45C64.2249 31.33 64.1649 31.1833 64.1649 31.01C64.1649 30.8367 64.2249 30.69 64.3449 30.57C64.4649 30.45 64.6116 30.39 64.7849 30.39C64.9516 30.39 65.0916 30.45 65.2049 30.57C65.3249 30.69 65.3849 30.8367 65.3849 31.01C65.3849 31.1833 65.3249 31.33 65.2049 31.45C65.0916 31.57 64.9516 31.63 64.7849 31.63ZM65.2249 32.52V38H64.3149V32.52H65.2249ZM69.4459 32.42C70.1125 32.42 70.6525 32.6233 71.0659 33.03C71.4792 33.43 71.6859 34.01 71.6859 34.77V38H70.7859V34.9C70.7859 34.3533 70.6492 33.9367 70.3759 33.65C70.1025 33.3567 69.7292 33.21 69.2559 33.21C68.7759 33.21 68.3925 33.36 68.1059 33.66C67.8259 33.96 67.6859 34.3967 67.6859 34.97V38H66.7759V32.52H67.6859V33.3C67.8659 33.02 68.1092 32.8033 68.4159 32.65C68.7292 32.4967 69.0725 32.42 69.4459 32.42ZM76.7484 33.53C76.9284 33.2167 77.195 32.9567 77.5484 32.75C77.9084 32.5367 78.325 32.43 78.7984 32.43C79.285 32.43 79.725 32.5467 80.1184 32.78C80.5184 33.0133 80.8317 33.3433 81.0584 33.77C81.285 34.19 81.3984 34.68 81.3984 35.24C81.3984 35.7933 81.285 36.2867 81.0584 36.72C80.8317 37.1533 80.5184 37.49 80.1184 37.73C79.725 37.97 79.285 38.09 78.7984 38.09C78.3317 38.09 77.9184 37.9867 77.5584 37.78C77.205 37.5667 76.935 37.3033 76.7484 36.99V40.6H75.8384V32.52H76.7484V33.53ZM80.4684 35.24C80.4684 34.8267 80.385 34.4667 80.2184 34.16C80.0517 33.8533 79.825 33.62 79.5384 33.46C79.2584 33.3 78.9484 33.22 78.6084 33.22C78.275 33.22 77.965 33.3033 77.6784 33.47C77.3984 33.63 77.1717 33.8667 76.9984 34.18C76.8317 34.4867 76.7484 34.8433 76.7484 35.25C76.7484 35.6633 76.8317 36.0267 76.9984 36.34C77.1717 36.6467 77.3984 36.8833 77.6784 37.05C77.965 37.21 78.275 37.29 78.6084 37.29C78.9484 37.29 79.2584 37.21 79.5384 37.05C79.825 36.8833 80.0517 36.6467 80.2184 36.34C80.385 36.0267 80.4684 35.66 80.4684 35.24ZM85.3162 32.42C85.7295 32.42 86.1028 32.51 86.4362 32.69C86.7695 32.8633 87.0295 33.1267 87.2162 33.48C87.4095 33.8333 87.5062 34.2633 87.5062 34.77V38H86.6062V34.9C86.6062 34.3533 86.4695 33.9367 86.1962 33.65C85.9228 33.3567 85.5495 33.21 85.0762 33.21C84.5962 33.21 84.2128 33.36 83.9262 33.66C83.6462 33.96 83.5062 34.3967 83.5062 34.97V38H82.5962V30.6H83.5062V33.3C83.6862 33.02 83.9328 32.8033 84.2462 32.65C84.5662 32.4967 84.9228 32.42 85.3162 32.42ZM91.3827 38.09C90.8693 38.09 90.4027 37.9733 89.9827 37.74C89.5693 37.5067 89.2427 37.1767 89.0027 36.75C88.7693 36.3167 88.6527 35.8167 88.6527 35.25C88.6527 34.69 88.7727 34.1967 89.0127 33.77C89.2593 33.3367 89.5927 33.0067 90.0127 32.78C90.4327 32.5467 90.9027 32.43 91.4227 32.43C91.9427 32.43 92.4127 32.5467 92.8327 32.78C93.2527 33.0067 93.5827 33.3333 93.8227 33.76C94.0693 34.1867 94.1927 34.6833 94.1927 35.25C94.1927 35.8167 94.066 36.3167 93.8127 36.75C93.566 37.1767 93.2293 37.5067 92.8027 37.74C92.376 37.9733 91.9027 38.09 91.3827 38.09ZM91.3827 37.29C91.7093 37.29 92.016 37.2133 92.3027 37.06C92.5893 36.9067 92.8193 36.6767 92.9927 36.37C93.1727 36.0633 93.2627 35.69 93.2627 35.25C93.2627 34.81 93.176 34.4367 93.0027 34.13C92.8293 33.8233 92.6027 33.5967 92.3227 33.45C92.0427 33.2967 91.7393 33.22 91.4127 33.22C91.0793 33.22 90.7727 33.2967 90.4927 33.45C90.2193 33.5967 89.9993 33.8233 89.8327 34.13C89.666 34.4367 89.5827 34.81 89.5827 35.25C89.5827 35.6967 89.6627 36.0733 89.8227 36.38C89.9893 36.6867 90.2093 36.9167 90.4827 37.07C90.756 37.2167 91.056 37.29 91.3827 37.29ZM92.4027 31.36V32.04L90.2727 30.9V30.11L92.4027 31.36ZM98.0591 32.42C98.7258 32.42 99.2658 32.6233 99.6791 33.03C100.092 33.43 100.299 34.01 100.299 34.77V38H99.3991V34.9C99.3991 34.3533 99.2625 33.9367 98.9891 33.65C98.7158 33.3567 98.3425 33.21 97.8691 33.21C97.3891 33.21 97.0058 33.36 96.7191 33.66C96.4391 33.96 96.2991 34.3967 96.2991 34.97V38H95.3891V32.52H96.2991V33.3C96.4791 33.02 96.7225 32.8033 97.0291 32.65C97.3425 32.4967 97.6858 32.42 98.0591 32.42ZM104.046 32.43C104.519 32.43 104.932 32.5333 105.286 32.74C105.646 32.9467 105.912 33.2067 106.086 33.52V32.52H107.006V38.12C107.006 38.62 106.899 39.0633 106.686 39.45C106.472 39.8433 106.166 40.15 105.766 40.37C105.372 40.59 104.912 40.7 104.386 40.7C103.666 40.7 103.066 40.53 102.586 40.19C102.106 39.85 101.822 39.3867 101.736 38.8H102.636C102.736 39.1333 102.942 39.4 103.256 39.6C103.569 39.8067 103.946 39.91 104.386 39.91C104.886 39.91 105.292 39.7533 105.606 39.44C105.926 39.1267 106.086 38.6867 106.086 38.12V36.97C105.906 37.29 105.639 37.5567 105.286 37.77C104.932 37.9833 104.519 38.09 104.046 38.09C103.559 38.09 103.116 37.97 102.716 37.73C102.322 37.49 102.012 37.1533 101.786 36.72C101.559 36.2867 101.446 35.7933 101.446 35.24C101.446 34.68 101.559 34.19 101.786 33.77C102.012 33.3433 102.322 33.0133 102.716 32.78C103.116 32.5467 103.559 32.43 104.046 32.43ZM106.086 35.25C106.086 34.8367 106.002 34.4767 105.836 34.17C105.669 33.8633 105.442 33.63 105.156 33.47C104.876 33.3033 104.566 33.22 104.226 33.22C103.886 33.22 103.576 33.3 103.296 33.46C103.016 33.62 102.792 33.8533 102.626 34.16C102.459 34.4667 102.376 34.8267 102.376 35.24C102.376 35.66 102.459 36.0267 102.626 36.34C102.792 36.6467 103.016 36.8833 103.296 37.05C103.576 37.21 103.886 37.29 104.226 37.29C104.566 37.29 104.876 37.21 105.156 37.05C105.442 36.8833 105.669 36.6467 105.836 36.34C106.002 36.0267 106.086 35.6633 106.086 35.25ZM112.319 33.27V36.5C112.319 36.7667 112.376 36.9567 112.489 37.07C112.603 37.1767 112.799 37.23 113.079 37.23H113.749V38H112.929C112.423 38 112.043 37.8833 111.789 37.65C111.536 37.4167 111.409 37.0333 111.409 36.5V33.27H110.699V32.52H111.409V31.14H112.319V32.52H113.749V33.27H112.319ZM115.762 33.41C115.922 33.0967 116.149 32.8533 116.442 32.68C116.742 32.5067 117.105 32.42 117.532 32.42V33.36H117.292C116.272 33.36 115.762 33.9133 115.762 35.02V38H114.852V32.52H115.762V33.41ZM123.322 35.31C123.322 35.7567 123.263 36.1533 123.143 36.5C123.029 36.84 122.863 37.13 122.643 37.37C122.429 37.61 122.166 37.7933 121.853 37.92C121.546 38.04 121.203 38.1 120.823 38.1C120.469 38.1 120.143 38.04 119.843 37.92C119.543 37.7933 119.283 37.61 119.062 37.37C118.843 37.13 118.669 36.84 118.543 36.5C118.423 36.1533 118.363 35.7567 118.363 35.31C118.363 34.7167 118.463 34.2167 118.663 33.81C118.863 33.3967 119.149 33.0833 119.523 32.87C119.896 32.65 120.339 32.54 120.853 32.54C121.339 32.54 121.766 32.65 122.133 32.87C122.506 33.0833 122.796 33.3967 123.003 33.81C123.216 34.2167 123.322 34.7167 123.322 35.31ZM119.273 35.31C119.273 35.73 119.326 36.0967 119.433 36.41C119.546 36.7167 119.719 36.9533 119.953 37.12C120.186 37.2867 120.483 37.37 120.843 37.37C121.203 37.37 121.499 37.2867 121.733 37.12C121.966 36.9533 122.136 36.7167 122.243 36.41C122.356 36.0967 122.413 35.73 122.413 35.31C122.413 34.8833 122.356 34.52 122.243 34.22C122.129 33.92 121.956 33.69 121.723 33.53C121.496 33.3633 121.199 33.28 120.833 33.28C120.286 33.28 119.889 33.46 119.643 33.82C119.396 34.18 119.273 34.6767 119.273 35.31ZM120.813 39.76C120.673 39.76 120.549 39.7133 120.443 39.62C120.343 39.5267 120.293 39.3867 120.293 39.2C120.293 39.0067 120.343 38.8633 120.443 38.77C120.549 38.6833 120.673 38.64 120.813 38.64C120.953 38.64 121.073 38.6833 121.173 38.77C121.279 38.8633 121.333 39.0067 121.333 39.2C121.333 39.3867 121.279 39.5267 121.173 39.62C121.073 39.7133 120.953 39.76 120.813 39.76ZM129.243 38.09C128.823 38.09 128.447 38.02 128.113 37.88C127.78 37.7333 127.517 37.5333 127.323 37.28C127.13 37.02 127.023 36.7233 127.003 36.39H127.943C127.97 36.6633 128.097 36.8867 128.323 37.06C128.557 37.2333 128.86 37.32 129.233 37.32C129.58 37.32 129.853 37.2433 130.053 37.09C130.253 36.9367 130.353 36.7433 130.353 36.51C130.353 36.27 130.247 36.0933 130.033 35.98C129.82 35.86 129.49 35.7433 129.043 35.63C128.637 35.5233 128.303 35.4167 128.043 35.31C127.79 35.1967 127.57 35.0333 127.383 34.82C127.203 34.6 127.113 34.3133 127.113 33.96C127.113 33.68 127.197 33.4233 127.363 33.19C127.53 32.9567 127.767 32.7733 128.073 32.64C128.38 32.5 128.73 32.43 129.123 32.43C129.73 32.43 130.22 32.5833 130.593 32.89C130.967 33.1967 131.167 33.6167 131.193 34.15H130.283C130.263 33.8633 130.147 33.6333 129.933 33.46C129.727 33.2867 129.447 33.2 129.093 33.2C128.767 33.2 128.507 33.27 128.313 33.41C128.12 33.55 128.023 33.7333 128.023 33.96C128.023 34.14 128.08 34.29 128.193 34.41C128.313 34.5233 128.46 34.6167 128.633 34.69C128.813 34.7567 129.06 34.8333 129.373 34.92C129.767 35.0267 130.087 35.1333 130.333 35.24C130.58 35.34 130.79 35.4933 130.963 35.7C131.143 35.9067 131.237 36.1767 131.243 36.51C131.243 36.81 131.16 37.08 130.993 37.32C130.827 37.56 130.59 37.75 130.283 37.89C129.983 38.0233 129.637 38.09 129.243 38.09ZM135.798 31.94C135.631 31.8267 135.461 31.7033 135.288 31.57C135.114 31.43 134.941 31.2833 134.768 31.13C134.594 31.2833 134.421 31.43 134.248 31.57C134.074 31.7033 133.904 31.8267 133.738 31.94H133.248V31.82C133.361 31.6933 133.478 31.56 133.598 31.42C133.724 31.28 133.848 31.1367 133.968 30.99C134.094 30.8367 134.208 30.6867 134.308 30.54H135.228C135.334 30.6867 135.448 30.8367 135.568 30.99C135.688 31.1367 135.808 31.28 135.928 31.42C136.054 31.56 136.174 31.6933 136.288 31.82V31.94H135.798ZM135.898 30.87C136.031 30.7033 136.141 30.55 136.228 30.41C136.314 30.27 136.411 30.0933 136.518 29.88H137.398V29.98C137.251 30.1733 137.091 30.3567 136.918 30.53C136.744 30.6967 136.571 30.85 136.398 30.99H135.898V30.87ZM137.268 35.31C137.268 35.7567 137.208 36.1533 137.088 36.5C136.974 36.84 136.808 37.13 136.588 37.37C136.374 37.61 136.111 37.7933 135.798 37.92C135.491 38.04 135.148 38.1 134.768 38.1C134.414 38.1 134.088 38.04 133.788 37.92C133.488 37.7933 133.228 37.61 133.008 37.37C132.788 37.13 132.614 36.84 132.488 36.5C132.368 36.1533 132.308 35.7567 132.308 35.31C132.308 34.7167 132.408 34.2167 132.608 33.81C132.808 33.3967 133.094 33.0833 133.468 32.87C133.841 32.65 134.284 32.54 134.798 32.54C135.284 32.54 135.711 32.65 136.078 32.87C136.451 33.0833 136.741 33.3967 136.948 33.81C137.161 34.2167 137.268 34.7167 137.268 35.31ZM133.218 35.31C133.218 35.73 133.271 36.0967 133.378 36.41C133.491 36.7167 133.664 36.9533 133.898 37.12C134.131 37.2867 134.428 37.37 134.788 37.37C135.148 37.37 135.444 37.2867 135.678 37.12C135.911 36.9533 136.081 36.7167 136.188 36.41C136.301 36.0967 136.358 35.73 136.358 35.31C136.358 34.8833 136.301 34.52 136.188 34.22C136.074 33.92 135.901 33.69 135.668 33.53C135.441 33.3633 135.144 33.28 134.778 33.28C134.231 33.28 133.834 33.46 133.588 33.82C133.341 34.18 133.218 34.6767 133.218 35.31ZM140.859 31.6V30.77H142.739V38H141.819V31.6H140.859ZM152.878 31.03L150.248 38H149.198L146.568 31.03H147.538L149.728 37.04L151.918 31.03H152.878ZM154.345 31.63C154.172 31.63 154.025 31.57 153.905 31.45C153.785 31.33 153.725 31.1833 153.725 31.01C153.725 30.8367 153.785 30.69 153.905 30.57C154.025 30.45 154.172 30.39 154.345 30.39C154.512 30.39 154.652 30.45 154.765 30.57C154.885 30.69 154.945 30.8367 154.945 31.01C154.945 31.1833 154.885 31.33 154.765 31.45C154.652 31.57 154.512 31.63 154.345 31.63ZM154.785 32.52V38H153.875V32.52H154.785ZM158.486 32.54C158.946 32.54 159.34 32.64 159.666 32.84C160 33.04 160.253 33.3233 160.426 33.69C160.606 34.05 160.696 34.4733 160.696 34.96V35.49H157.026C157.04 36.0967 157.193 36.56 157.486 36.88C157.786 37.1933 158.203 37.35 158.736 37.35C159.076 37.35 159.376 37.32 159.636 37.26C159.903 37.1933 160.176 37.1 160.456 36.98V37.75C160.183 37.87 159.913 37.9567 159.646 38.01C159.38 38.07 159.063 38.1 158.696 38.1C158.19 38.1 157.74 37.9967 157.346 37.79C156.96 37.5833 156.656 37.2767 156.436 36.87C156.223 36.4567 156.116 35.9533 156.116 35.36C156.116 34.7733 156.213 34.27 156.406 33.85C156.606 33.43 156.883 33.1067 157.236 32.88C157.596 32.6533 158.013 32.54 158.486 32.54ZM158.476 33.26C158.056 33.26 157.723 33.3967 157.476 33.67C157.236 33.9367 157.093 34.31 157.046 34.79H159.776C159.776 34.4833 159.73 34.2167 159.636 33.99C159.543 33.7633 159.4 33.5867 159.206 33.46C159.02 33.3267 158.776 33.26 158.476 33.26ZM158.876 30.34C158.956 30.4867 159.07 30.6533 159.216 30.84C159.37 31.02 159.526 31.2 159.686 31.38C159.853 31.5533 160 31.7033 160.126 31.83V31.94H159.506C159.333 31.8333 159.153 31.7033 158.966 31.55C158.78 31.39 158.596 31.22 158.416 31.04C158.236 31.22 158.056 31.3867 157.876 31.54C157.696 31.6933 157.52 31.8267 157.346 31.94H156.746V31.83C156.873 31.6967 157.013 31.5433 157.166 31.37C157.326 31.1967 157.48 31.02 157.626 30.84C157.773 30.6533 157.89 30.4867 157.976 30.34H158.876ZM158.566 39.76C158.426 39.76 158.303 39.7133 158.196 39.62C158.096 39.5267 158.046 39.3867 158.046 39.2C158.046 39.0067 158.096 38.8633 158.196 38.77C158.303 38.6833 158.426 38.64 158.566 38.64C158.706 38.64 158.826 38.6833 158.926 38.77C159.033 38.8633 159.086 39.0067 159.086 39.2C159.086 39.3867 159.033 39.5267 158.926 39.62C158.826 39.7133 158.706 39.76 158.566 39.76ZM163.091 33.27V36.5C163.091 36.7667 163.148 36.9567 163.261 37.07C163.374 37.1767 163.571 37.23 163.851 37.23H164.521V38H163.701C163.194 38 162.814 37.8833 162.561 37.65C162.308 37.4167 162.181 37.0333 162.181 36.5V33.27H161.471V32.52H162.181V31.14H163.091V32.52H164.521V33.27H163.091ZM173.77 38H172.86L169.2 32.45V38H168.29V31.02H169.2L172.86 36.56V31.02H173.77V38ZM174.981 35.24C174.981 34.68 175.094 34.19 175.321 33.77C175.547 33.3433 175.857 33.0133 176.251 32.78C176.651 32.5467 177.094 32.43 177.581 32.43C178.061 32.43 178.477 32.5333 178.831 32.74C179.184 32.9467 179.447 33.2067 179.621 33.52V32.52H180.541V38H179.621V36.98C179.441 37.3 179.171 37.5667 178.811 37.78C178.457 37.9867 178.044 38.09 177.571 38.09C177.084 38.09 176.644 37.97 176.251 37.73C175.857 37.49 175.547 37.1533 175.321 36.72C175.094 36.2867 174.981 35.7933 174.981 35.24ZM179.621 35.25C179.621 34.8367 179.537 34.4767 179.371 34.17C179.204 33.8633 178.977 33.63 178.691 33.47C178.411 33.3033 178.101 33.22 177.761 33.22C177.421 33.22 177.111 33.3 176.831 33.46C176.551 33.62 176.327 33.8533 176.161 34.16C175.994 34.4667 175.911 34.8267 175.911 35.24C175.911 35.66 175.994 36.0267 176.161 36.34C176.327 36.6467 176.551 36.8833 176.831 37.05C177.111 37.21 177.421 37.29 177.761 37.29C178.101 37.29 178.411 37.21 178.691 37.05C178.977 36.8833 179.204 36.6467 179.371 36.34C179.537 36.0267 179.621 35.6633 179.621 35.25ZM188.669 32.42C189.095 32.42 189.475 32.51 189.809 32.69C190.142 32.8633 190.405 33.1267 190.599 33.48C190.792 33.8333 190.889 34.2633 190.889 34.77V38H189.989V34.9C189.989 34.3533 189.852 33.9367 189.579 33.65C189.312 33.3567 188.949 33.21 188.489 33.21C188.015 33.21 187.639 33.3633 187.359 33.67C187.079 33.97 186.939 34.4067 186.939 34.98V38H186.039V34.9C186.039 34.3533 185.902 33.9367 185.629 33.65C185.362 33.3567 184.999 33.21 184.539 33.21C184.065 33.21 183.689 33.3633 183.409 33.67C183.129 33.97 182.989 34.4067 182.989 34.98V38H182.079V32.52H182.989V33.31C183.169 33.0233 183.409 32.8033 183.709 32.65C184.015 32.4967 184.352 32.42 184.719 32.42C185.179 32.42 185.585 32.5233 185.939 32.73C186.292 32.9367 186.555 33.24 186.729 33.64C186.882 33.2533 187.135 32.9533 187.489 32.74C187.842 32.5267 188.235 32.42 188.669 32.42Z" fill="black"/>
</svg>
